<?xml version="1.0" encoding="utf-8"?>
<!-- Generator: Adobe Illustrator 19.0.0, SVG Export Plug-In . SVG Version: 6.00 Build 0)  -->
<svg version="1.1" id="Layer_1" xmlns="http://www.w3.org/2000/svg" xmlns:xlink="http://www.w3.org/1999/xlink" x="0px" y="0px"
	 viewBox="308 264 795.1 220" style="enable-background:new 308 264 795.1 220;" xml:space="preserve">
<style type="text/css">
	.st0{fill:none;}
	.st1{enable-background:new    ;}
	.st2{fill:#FB743E;}
	.st3{fill:#FFFFFF;stroke:#FB743E;stroke-width:12;stroke-linecap:round;}
	.st4{fill:#3c4858;}
</style>
<rect x="502.6" y="342.3" class="st0" width="629.9" height="98.8"/>
<g class="st1" fill="#3c4858">
	<path class="st2" d="M581,426.4h-51.3c-1.3,0-2.7-0.2-4.2-0.5c-1.5-0.3-3-0.8-4.5-1.4s-2.9-1.5-4.2-2.5c-1.3-1-2.5-2.3-3.6-3.8
		s-1.9-3.2-2.5-5.1c-0.6-2-0.9-4.1-0.9-6.6v-38.5c0-1.3,0.2-2.7,0.5-4.2c0.3-1.5,0.8-3,1.4-4.5s1.5-2.9,2.6-4.2
		c1.1-1.3,2.3-2.5,3.8-3.6s3.2-1.9,5.1-2.5c1.9-0.6,4.1-0.9,6.6-0.9H581v14.2h-51.3c-1.9,0-3.3,0.5-4.3,1.5s-1.5,2.4-1.5,4.4v38.4
		c0,1.8,0.5,3.2,1.5,4.2c1,1,2.4,1.5,4.2,1.5H581V426.4z"/>
	<path class="st2" d="M678.4,426.4h-14.2v-19.3h-50v19.3h-14.2v-39.2c0-5.7,1-11,3-15.8s4.7-9,8.2-12.4c3.5-3.5,7.6-6.2,12.4-8.1
		c4.8-1.9,10-2.9,15.6-2.9h32c1,0,1.9,0.2,2.8,0.5c0.9,0.4,1.6,0.9,2.3,1.5s1.2,1.4,1.5,2.3c0.4,0.9,0.5,1.8,0.5,2.8V426.4z
		 M614.2,392.9h50v-30.7h-25c-0.4,0-1.4,0.1-2.8,0.2c-1.4,0.1-3,0.4-4.9,1c-1.8,0.5-3.8,1.3-5.8,2.4c-2,1.1-3.9,2.5-5.6,4.4
		c-1.7,1.9-3.1,4.2-4.2,7c-1.1,2.8-1.7,6.2-1.7,10.1V392.9z"/>
	<path class="st2" d="M777.2,403.3c0,2.8-0.4,5.3-1.1,7.6s-1.7,4.2-2.8,5.9c-1.2,1.7-2.5,3.2-4.1,4.4c-1.6,1.2-3.2,2.2-4.9,3
		c-1.7,0.8-3.4,1.3-5.1,1.7c-1.7,0.4-3.4,0.5-4.9,0.5h-54.9v-14.2h54.9c2.7,0,4.9-0.8,6.4-2.4c1.5-1.6,2.3-3.8,2.3-6.5
		c0-1.3-0.2-2.5-0.6-3.6c-0.4-1.1-1-2-1.7-2.8c-0.7-0.8-1.7-1.4-2.7-1.9c-1.1-0.4-2.3-0.7-3.6-0.7h-32.7c-2.3,0-4.8-0.4-7.4-1.2
		c-2.7-0.8-5.1-2.1-7.4-4c-2.3-1.8-4.2-4.2-5.7-7.2c-1.5-3-2.3-6.6-2.3-10.8s0.8-7.9,2.3-10.8c1.5-2.9,3.4-5.3,5.7-7.2
		c2.3-1.8,4.7-3.2,7.4-4c2.7-0.8,5.1-1.2,7.4-1.2H770v14.2h-48.4c-2.7,0-4.8,0.8-6.3,2.5c-1.5,1.6-2.3,3.8-2.3,6.5
		c0,2.7,0.8,4.9,2.3,6.5c1.5,1.6,3.6,2.4,6.3,2.4h32.7h0.1c1.5,0,3.2,0.2,4.9,0.6c1.7,0.4,3.4,1,5.1,1.8c1.7,0.8,3.3,1.8,4.8,3
		c1.5,1.2,2.9,2.7,4.1,4.4c1.2,1.7,2.1,3.7,2.8,5.9C776.8,398,777.2,400.5,777.2,403.3z"/>
	<path class="st2" d="M872.9,426.4h-14.2v-19.3h-50v19.3h-14.2v-39.2c0-5.7,1-11,3-15.8s4.7-9,8.2-12.4c3.5-3.5,7.6-6.2,12.4-8.1
		c4.8-1.9,10-2.9,15.6-2.9h32c1,0,1.9,0.2,2.8,0.5c0.9,0.4,1.6,0.9,2.3,1.5s1.2,1.4,1.5,2.3c0.4,0.9,0.5,1.8,0.5,2.8V426.4z
		 M808.7,392.9h50v-30.7h-25c-0.4,0-1.4,0.1-2.8,0.2c-1.4,0.1-3,0.4-4.9,1c-1.8,0.5-3.8,1.3-5.8,2.4c-2,1.1-3.9,2.5-5.6,4.4
		c-1.7,1.9-3.1,4.2-4.2,7c-1.1,2.8-1.7,6.2-1.7,10.1V392.9z"/>
	<path class="st2" d="M967.6,362.2h-57v64.2h-14.2v-71.3c0-1,0.2-1.9,0.5-2.8c0.4-0.9,0.9-1.6,1.5-2.3c0.6-0.7,1.4-1.2,2.3-1.5
		c0.9-0.4,1.8-0.5,2.8-0.5h64V362.2z M961.2,394.3h-45V380h45V394.3z"/>
	<path class="st2" d="M1000.3,426.4h-14.2v-78.4h14.2V426.4z"/>
	<path class="st2" d="M1059.7,375.9l24-28h19.4l-33.7,39.3l33.5,39.1h-19.3l-23.8-27.8l-23.7,27.8h-19.4l33.5-39.1l-33.6-39.3h19.3
		L1059.7,375.9z"/>
</g>
<g>
	<path class="st3" d="M471.3,453.2v22.5c0,0.5-0.5,1-1,1H316.7c-0.6,0-1-0.5-1-1V348.9c0-0.6,0.3-1.3,0.7-1.7l76.9-74.9
		c0.4-0.4,1-0.4,1.4,0l35,35c0.4,0.4,0.7,0.3,0.7-0.3v-14.3c0-0.6,0.4-1,1-1H457c0.6,0,1,0.4,1,1v41.9c0,0.6,0.3,1.3,0.7,1.7
		l11.9,11.5c0,44,0,44.4,0,58.8"/>
</g>
<rect x="507.1" y="439.6" class="st0" width="638.6" height="98"/>
<g class="st1">
	<path class="st4" d="M538,472.6h-20.2c-0.5,0-1.1-0.1-1.7-0.2c-0.6-0.1-1.2-0.3-1.8-0.6s-1.1-0.6-1.7-1c-0.5-0.4-1-0.9-1.4-1.5
		s-0.7-1.3-1-2c-0.2-0.8-0.4-1.6-0.4-2.6v-15.1c0-0.5,0.1-1.1,0.2-1.7c0.1-0.6,0.3-1.2,0.6-1.8s0.6-1.1,1-1.7c0.4-0.5,0.9-1,1.5-1.4
		s1.2-0.7,2-1c0.8-0.2,1.6-0.4,2.6-0.4H538v5.6h-20.2c-0.7,0-1.3,0.2-1.7,0.6s-0.6,1-0.6,1.7v15.1c0,0.7,0.2,1.3,0.6,1.7
		c0.4,0.4,0.9,0.6,1.7,0.6H538V472.6z"/>
	<path class="st4" d="M569.3,457.1c0,0.8-0.1,1.6-0.4,2.5c-0.3,0.9-0.7,1.7-1.3,2.5c-0.6,0.8-1.4,1.4-2.4,1.9
		c-1,0.5-2.2,0.8-3.6,0.8h-10.1v-5.3h10.1c0.8,0,1.3-0.2,1.8-0.7c0.4-0.5,0.6-1,0.6-1.7c0-0.7-0.2-1.3-0.7-1.7
		c-0.5-0.4-1-0.6-1.7-0.6h-10.1c-0.8,0-1.3,0.2-1.8,0.7c-0.4,0.5-0.6,1-0.6,1.7v7.8c0,0.7,0.2,1.3,0.7,1.7c0.5,0.4,1,0.6,1.7,0.6h10
		v5.3h-10.1c-0.8,0-1.6-0.1-2.5-0.4c-0.9-0.3-1.7-0.7-2.5-1.3c-0.8-0.6-1.4-1.4-1.9-2.4c-0.5-1-0.8-2.2-0.8-3.6v-7.8
		c0-0.8,0.1-1.6,0.4-2.5c0.3-0.9,0.7-1.7,1.3-2.5c0.6-0.8,1.4-1.4,2.4-1.9c1-0.5,2.2-0.8,3.6-0.8h10.1c0.8,0,1.6,0.1,2.5,0.4
		c0.9,0.3,1.7,0.7,2.5,1.3c0.8,0.6,1.4,1.4,1.9,2.4C569.1,454.5,569.3,455.7,569.3,457.1z"/>
	<path class="st4" d="M595.4,455h-12.6c-0.8,0-1.3,0.2-1.7,0.6c-0.4,0.4-0.6,0.9-0.6,1.7v15.4h-5.6v-15.4c0-1,0.1-1.8,0.4-2.6
		c0.2-0.8,0.6-1.4,1-2s0.9-1.1,1.4-1.5c0.5-0.4,1.1-0.7,1.7-1s1.2-0.4,1.8-0.6c0.6-0.1,1.1-0.2,1.7-0.2h12.6V455z"/>
	<path class="st4" d="M623.5,472.6h-15.1c-0.8,0-1.6-0.1-2.5-0.4c-0.9-0.3-1.8-0.7-2.5-1.3c-0.8-0.6-1.4-1.4-2-2.4
		c-0.5-1-0.8-2.2-0.8-3.7v-7.6c0-0.5,0.1-1.1,0.2-1.7c0.1-0.6,0.3-1.2,0.6-1.8s0.6-1.1,1-1.7c0.4-0.5,0.9-1,1.5-1.4
		c0.6-0.4,1.2-0.7,2-1c0.8-0.2,1.6-0.4,2.6-0.4h15.1v5.6h-15.1c-0.7,0-1.3,0.2-1.7,0.6c-0.4,0.4-0.6,0.9-0.6,1.7v7.5
		c0,0.7,0.2,1.3,0.6,1.7s1,0.6,1.7,0.6h15.1V472.6z"/>
	<path class="st4" d="M653.9,464.9c0,0.8-0.1,1.6-0.4,2.5c-0.3,0.9-0.7,1.7-1.3,2.5c-0.6,0.8-1.4,1.4-2.4,1.9
		c-1,0.5-2.2,0.8-3.6,0.8h-10.1c-0.8,0-1.6-0.1-2.5-0.4c-0.9-0.3-1.7-0.7-2.5-1.3c-0.8-0.6-1.4-1.4-1.9-2.4c-0.5-1-0.8-2.2-0.8-3.6
		c0-0.8,0.1-1.6,0.4-2.5c0.3-0.9,0.7-1.7,1.3-2.5c0.6-0.8,1.4-1.4,2.4-1.9c1-0.5,2.2-0.8,3.6-0.8h10.1v5.3h-10.1
		c-0.8,0-1.3,0.2-1.8,0.7c-0.4,0.5-0.6,1-0.6,1.7c0,0.7,0.2,1.3,0.7,1.7c0.5,0.4,1,0.6,1.7,0.6h10c0.8,0,1.3-0.2,1.8-0.7
		c0.4-0.5,0.6-1,0.6-1.7v-7.8c0-0.7-0.2-1.3-0.7-1.7s-1-0.6-1.7-0.6h-12.3v-5.3h12.3c0.8,0,1.6,0.1,2.5,0.4c0.9,0.3,1.7,0.7,2.5,1.3
		c0.8,0.6,1.4,1.4,1.9,2.4c0.5,1,0.8,2.2,0.8,3.6V464.9z"/>
	<path class="st4" d="M705.1,472.6H685c-0.5,0-1.1-0.1-1.7-0.2c-0.6-0.1-1.2-0.3-1.8-0.6s-1.1-0.6-1.7-1c-0.5-0.4-1-0.9-1.4-1.5
		s-0.7-1.3-1-2c-0.2-0.8-0.4-1.6-0.4-2.6v-15.1c0-0.5,0.1-1.1,0.2-1.7c0.1-0.6,0.3-1.2,0.6-1.8s0.6-1.1,1-1.7c0.4-0.5,0.9-1,1.5-1.4
		s1.2-0.7,2-1c0.8-0.2,1.6-0.4,2.6-0.4h20.2v5.6H685c-0.7,0-1.3,0.2-1.7,0.6s-0.6,1-0.6,1.7v15.1c0,0.7,0.2,1.3,0.6,1.7
		c0.4,0.4,0.9,0.6,1.7,0.6h20.2V472.6z"/>
	<path class="st4" d="M736.8,464.8c0,1-0.1,1.8-0.4,2.6c-0.2,0.8-0.6,1.4-1,2c-0.4,0.6-0.9,1.1-1.4,1.5c-0.5,0.4-1.1,0.7-1.7,1
		s-1.2,0.4-1.8,0.6c-0.6,0.1-1.2,0.2-1.7,0.2h-10.1c-0.8,0-1.6-0.1-2.5-0.4c-0.9-0.3-1.8-0.7-2.5-1.3c-0.8-0.6-1.4-1.4-2-2.4
		c-0.5-1-0.8-2.2-0.8-3.7v-7.6c0-1.4,0.3-2.6,0.8-3.6c0.5-1,1.2-1.8,2-2.4c0.8-0.6,1.6-1.1,2.5-1.3c0.9-0.3,1.8-0.4,2.5-0.4h10.1
		c1.4,0,2.6,0.3,3.7,0.8c1,0.5,1.8,1.2,2.4,1.9c0.6,0.8,1.1,1.6,1.3,2.5c0.3,0.9,0.4,1.8,0.4,2.6V464.8z M731.2,457.2
		c0-0.8-0.2-1.3-0.6-1.7c-0.4-0.4-0.9-0.6-1.7-0.6h-10c-0.7,0-1.3,0.2-1.7,0.6c-0.4,0.4-0.6,0.9-0.6,1.7v7.6c0,0.7,0.2,1.3,0.6,1.7
		s1,0.6,1.7,0.6h10c0.8,0,1.3-0.2,1.7-0.6c0.4-0.4,0.6-0.9,0.6-1.7V457.2z"/>
	<path class="st4" d="M769.2,472.6h-5.6v-12.9c0-0.7-0.1-1.4-0.4-2s-0.6-1.1-1-1.5c-0.4-0.4-0.9-0.7-1.5-1c-0.6-0.2-1.2-0.3-1.9-0.3
		h-9.8v17.6h-5.6v-20.5c0-0.4,0.1-0.7,0.2-1.1c0.1-0.3,0.3-0.6,0.6-0.9c0.3-0.3,0.6-0.4,0.9-0.6c0.3-0.1,0.7-0.2,1.1-0.2h12.6
		c0.7,0,1.4,0.1,2.2,0.2c0.8,0.2,1.6,0.4,2.3,0.8c0.8,0.4,1.5,0.8,2.2,1.3s1.3,1.2,1.8,2c0.5,0.8,1,1.7,1.3,2.7
		c0.3,1,0.5,2.1,0.5,3.4V472.6z"/>
	<path class="st4" d="M796.5,455h-9.8v17.6h-5.7V455h-7.3v-5.6h7.3v-7.6h5.7v7.6h9.8V455z"/>
	<path class="st4" d="M824.8,464.9c0,0.8-0.1,1.6-0.4,2.5c-0.3,0.9-0.7,1.7-1.3,2.5c-0.6,0.8-1.4,1.4-2.4,1.9
		c-1,0.5-2.2,0.8-3.6,0.8h-10.1c-0.8,0-1.6-0.1-2.5-0.4c-0.9-0.3-1.7-0.7-2.5-1.3c-0.8-0.6-1.4-1.4-1.9-2.4c-0.5-1-0.8-2.2-0.8-3.6
		c0-0.8,0.1-1.6,0.4-2.5s0.7-1.7,1.3-2.5c0.6-0.8,1.4-1.4,2.4-1.9s2.2-0.8,3.6-0.8h10.1v5.3h-10.1c-0.8,0-1.3,0.2-1.8,0.7
		c-0.4,0.5-0.6,1-0.6,1.7c0,0.7,0.2,1.3,0.7,1.7s1,0.6,1.7,0.6h10c0.8,0,1.3-0.2,1.8-0.7c0.4-0.5,0.6-1,0.6-1.7v-7.8
		c0-0.7-0.2-1.3-0.7-1.7s-1-0.6-1.7-0.6h-12.3v-5.3h12.3c0.8,0,1.6,0.1,2.5,0.4c0.9,0.3,1.7,0.7,2.5,1.3c0.8,0.6,1.4,1.4,1.9,2.4
		c0.5,1,0.8,2.2,0.8,3.6V464.9z"/>
	<path class="st4" d="M852.6,455h-9.8v17.6h-5.7V455h-7.3v-5.6h7.3v-7.6h5.7v7.6h9.8V455z"/>
	<path class="st4" d="M879.4,455h-9.8v17.6H864V455h-7.3v-5.6h7.3v-7.6h5.7v7.6h9.8V455z"/>
	<path class="st4" d="M907.7,464.9c0,0.8-0.1,1.6-0.4,2.5c-0.3,0.9-0.7,1.7-1.3,2.5c-0.6,0.8-1.4,1.4-2.4,1.9
		c-1,0.5-2.2,0.8-3.6,0.8h-10.1c-0.8,0-1.6-0.1-2.5-0.4c-0.9-0.3-1.7-0.7-2.5-1.3c-0.8-0.6-1.4-1.4-1.9-2.4c-0.5-1-0.8-2.2-0.8-3.6
		c0-0.8,0.1-1.6,0.4-2.5c0.3-0.9,0.7-1.7,1.3-2.5c0.6-0.8,1.4-1.4,2.4-1.9c1-0.5,2.2-0.8,3.6-0.8H900v5.3h-10.1
		c-0.8,0-1.3,0.2-1.8,0.7c-0.4,0.5-0.6,1-0.6,1.7c0,0.7,0.2,1.3,0.7,1.7c0.5,0.4,1,0.6,1.7,0.6h10c0.8,0,1.3-0.2,1.8-0.7
		c0.4-0.5,0.6-1,0.6-1.7v-7.8c0-0.7-0.2-1.3-0.7-1.7s-1-0.6-1.7-0.6h-12.3v-5.3H900c0.8,0,1.6,0.1,2.5,0.4c0.9,0.3,1.7,0.7,2.5,1.3
		c0.8,0.6,1.4,1.4,1.9,2.4c0.5,1,0.8,2.2,0.8,3.6V464.9z"/>
	<path class="st4" d="M962.1,452.1c0,1.3-0.2,2.4-0.5,3.4c-0.3,1-0.7,1.9-1.3,2.7c-0.5,0.8-1.2,1.4-1.9,2c-0.7,0.5-1.4,1-2.2,1.3
		c-0.8,0.4-1.5,0.6-2.3,0.8c-0.8,0.2-1.5,0.2-2.2,0.2l11.7,10.1h-8.6l-11.6-10.1h-4v-5.6h12.6c0.7-0.1,1.3-0.2,1.9-0.4
		s1.1-0.6,1.5-1c0.4-0.4,0.7-0.9,1-1.5c0.2-0.6,0.3-1.2,0.3-1.9v-3.5c0-0.3,0-0.6-0.1-0.7c-0.1-0.2-0.2-0.3-0.3-0.4
		c-0.1-0.1-0.3-0.1-0.4-0.1c-0.1,0-0.3,0-0.4,0h-18.4v25.2h-5.6v-28c0-0.4,0.1-0.8,0.2-1.1c0.1-0.3,0.3-0.6,0.6-0.9
		c0.3-0.3,0.5-0.5,0.9-0.6c0.3-0.1,0.7-0.2,1.1-0.2h21.2c1.2,0,2.3,0.2,3.2,0.7s1.6,1,2.1,1.7c0.5,0.7,0.9,1.4,1.2,2.2
		c0.2,0.8,0.4,1.5,0.4,2.2V452.1z"/>
	<path class="st4" d="M974.8,444.6h-5.6v-5h5.6V444.6z M974.8,472.6h-5.6v-23.2h5.6V472.6z"/>
	<path class="st4" d="M1007.7,464.8c0,1-0.1,1.8-0.4,2.6c-0.2,0.8-0.6,1.4-1,2c-0.4,0.6-0.9,1.1-1.4,1.5c-0.5,0.4-1.1,0.7-1.7,1
		s-1.2,0.4-1.8,0.6c-0.6,0.1-1.1,0.2-1.7,0.2h-10.1V467h10.1c0.7,0,1.3-0.2,1.7-0.6c0.4-0.4,0.6-0.9,0.6-1.7v-7.5
		c0-0.8-0.2-1.3-0.6-1.7c-0.4-0.4-0.9-0.6-1.7-0.6h-10c-0.8,0-1.3,0.2-1.7,0.6c-0.4,0.4-0.6,0.9-0.6,1.7v22.7H982v-22.7
		c0-1,0.1-1.8,0.4-2.6c0.2-0.8,0.6-1.4,1-2s0.9-1.1,1.4-1.5c0.5-0.4,1.1-0.7,1.7-1s1.2-0.4,1.8-0.6c0.6-0.1,1.1-0.2,1.7-0.2h10.1
		c1,0,1.8,0.1,2.6,0.4c0.8,0.2,1.4,0.6,2,1c0.6,0.4,1.1,0.9,1.5,1.4c0.4,0.5,0.7,1.1,1,1.7s0.4,1.2,0.6,1.8c0.1,0.6,0.2,1.1,0.2,1.7
		V464.8z"/>
	<path class="st4" d="M1038.4,464.9c0,0.8-0.1,1.6-0.4,2.5c-0.3,0.9-0.7,1.7-1.3,2.5c-0.6,0.8-1.4,1.4-2.4,1.9
		c-1,0.5-2.2,0.8-3.6,0.8h-10.1c-0.8,0-1.6-0.1-2.5-0.4c-0.9-0.3-1.7-0.7-2.5-1.3c-0.8-0.6-1.4-1.4-1.9-2.4c-0.5-1-0.8-2.2-0.8-3.6
		c0-0.8,0.1-1.6,0.4-2.5c0.3-0.9,0.7-1.7,1.3-2.5c0.6-0.8,1.4-1.4,2.4-1.9c1-0.5,2.2-0.8,3.6-0.8h10.1v5.3h-10.1
		c-0.8,0-1.3,0.2-1.8,0.7c-0.4,0.5-0.6,1-0.6,1.7c0,0.7,0.2,1.3,0.7,1.7c0.5,0.4,1,0.6,1.7,0.6h10c0.8,0,1.3-0.2,1.8-0.7
		c0.4-0.5,0.6-1,0.6-1.7v-7.8c0-0.7-0.2-1.3-0.7-1.7s-1-0.6-1.7-0.6h-12.3v-5.3h12.3c0.8,0,1.6,0.1,2.5,0.4c0.9,0.3,1.7,0.7,2.5,1.3
		c0.8,0.6,1.4,1.4,1.9,2.4c0.5,1,0.8,2.2,0.8,3.6V464.9z"/>
	<path class="st4" d="M1065.5,455h-12.6c-0.8,0-1.3,0.2-1.7,0.6c-0.4,0.4-0.6,0.9-0.6,1.7v15.4h-5.6v-15.4c0-1,0.1-1.8,0.4-2.6
		c0.2-0.8,0.6-1.4,1-2s0.9-1.1,1.4-1.5c0.5-0.4,1.1-0.7,1.7-1s1.2-0.4,1.8-0.6c0.6-0.1,1.1-0.2,1.7-0.2h12.6V455z"/>
	<path class="st4" d="M1093.3,464.9c0,0.8-0.1,1.6-0.4,2.5c-0.3,0.9-0.7,1.7-1.3,2.5c-0.6,0.8-1.4,1.4-2.4,1.9
		c-1,0.5-2.2,0.8-3.6,0.8h-10.1c-0.8,0-1.6-0.1-2.5-0.4c-0.9-0.3-1.7-0.7-2.5-1.3c-0.8-0.6-1.4-1.4-1.9-2.4c-0.5-1-0.8-2.2-0.8-3.6
		c0-0.8,0.1-1.6,0.4-2.5c0.3-0.9,0.7-1.7,1.3-2.5c0.6-0.8,1.4-1.4,2.4-1.9c1-0.5,2.2-0.8,3.6-0.8h10.1v5.3h-10.1
		c-0.8,0-1.3,0.2-1.8,0.7c-0.4,0.5-0.6,1-0.6,1.7c0,0.7,0.2,1.3,0.7,1.7c0.5,0.4,1,0.6,1.7,0.6h10c0.8,0,1.3-0.2,1.8-0.7
		c0.4-0.5,0.6-1,0.6-1.7v-7.8c0-0.7-0.2-1.3-0.7-1.7s-1-0.6-1.7-0.6h-12.3v-5.3h12.3c0.8,0,1.6,0.1,2.5,0.4c0.9,0.3,1.7,0.7,2.5,1.3
		c0.8,0.6,1.4,1.4,1.9,2.4c0.5,1,0.8,2.2,0.8,3.6V464.9z"/>
</g>
</svg>
