<svg width="40" height="40" viewBox="0 0 40 40" fill="none" xmlns="http://www.w3.org/2000/svg">
<path fill-rule="evenodd" clip-rule="evenodd" d="M26.4164 4.16787C27.468 4.16787 28.518 4.3162 29.5164 4.6512C35.668 6.6512 37.8847 13.4012 36.033 19.3012C34.983 22.3162 33.2664 25.0679 31.018 27.3162C27.7997 30.4329 24.268 33.1995 20.4664 35.5829L20.0497 35.8345L19.6164 35.5662C15.8014 33.1995 12.2497 30.4329 9.00137 27.2995C6.76803 25.0512 5.0497 22.3162 3.98304 19.3012C2.0997 13.4012 4.31637 6.6512 10.5347 4.6162C11.018 4.44954 11.5164 4.33287 12.0164 4.26787H12.2164C12.6847 4.19954 13.1497 4.16787 13.6164 4.16787H13.7997C14.8497 4.19954 15.8664 4.38287 16.8514 4.71787H16.9497C17.0164 4.74954 17.0664 4.78454 17.0997 4.8162C17.468 4.93454 17.8164 5.06787 18.1497 5.2512L18.783 5.53454C18.9361 5.61616 19.1078 5.74087 19.2563 5.84865C19.3504 5.91694 19.4351 5.97844 19.4997 6.01787C19.5269 6.03391 19.5545 6.05005 19.5824 6.06631C19.7253 6.14973 19.8742 6.23663 19.9997 6.33287C21.8514 4.91787 24.0997 4.1512 26.4164 4.16787ZM30.8497 16.1679C31.533 16.1495 32.1164 15.6012 32.1664 14.8995V14.7012C32.2164 12.3662 30.8014 10.2512 28.6497 9.43453C27.9664 9.19953 27.2164 9.56787 26.9664 10.2679C26.733 10.9679 27.0997 11.7345 27.7997 11.9829C28.868 12.3829 29.583 13.4345 29.583 14.5995V14.6512C29.5514 15.0329 29.6664 15.4012 29.8997 15.6845C30.133 15.9679 30.483 16.1329 30.8497 16.1679Z" fill="#C4C4C4"/>
</svg>
