<svg width="23" height="23" viewBox="0 0 23 23" fill="none" xmlns="http://www.w3.org/2000/svg">
<path d="M2.5573 6.87997L5.38355 9.11122M2.53104 16.0675L5.36604 13.8362M15.236 16.89L18.0623 19.1212M21.5623 11.5C21.5604 12.0872 21.5047 12.6729 21.396 13.25C21.0118 15.4215 19.9231 17.406 18.2981 18.8968C16.6731 20.3876 14.6023 21.3017 12.4057 21.4978C10.2092 21.6939 8.00926 21.1611 6.14587 19.9817C4.28248 18.8023 2.85941 17.0421 2.0966 14.9729C1.33378 12.9038 1.2737 10.641 1.92564 8.53435C2.57757 6.42766 3.90523 4.59434 5.7034 3.31774C7.50158 2.04113 9.67017 1.39232 11.874 1.47157C14.0778 1.55083 16.1942 2.35374 17.896 3.75622L15.4285 6.24997C14.2986 5.39293 12.918 4.93169 11.4998 4.93747C10.2769 4.9361 9.07792 5.27646 8.03813 5.92016C6.99834 6.56386 6.1591 7.4853 5.61507 8.58054C5.07104 9.67577 4.84386 10.9012 4.95916 12.1187C5.07446 13.3362 5.52765 14.4972 6.26762 15.4708C7.00758 16.4445 8.00488 17.192 9.14702 17.629C10.2892 18.0661 11.5307 18.1753 12.7316 17.9444C13.9325 17.7135 15.045 17.1516 15.9436 16.3221C16.8422 15.4927 17.4912 14.4286 17.8173 13.25H11.9373V9.74997H21.396C21.5003 10.3276 21.5559 10.913 21.5623 11.5Z" stroke="#fff" stroke-linecap="round" stroke-linejoin="round"/>
</svg>
