<svg width="38" height="38" viewBox="0 0 38 38" fill="none" xmlns="http://www.w3.org/2000/svg">
<path d="M33.9393 4.08816C33.1473 3.2753 31.9752 2.97247 30.8822 3.29124L5.39595 10.7026C4.24282 11.023 3.42548 11.9426 3.20531 13.1109C2.98038 14.2999 3.76604 15.8093 4.79246 16.4404L12.7615 21.3383C13.5788 21.8404 14.6337 21.7145 15.3101 21.0323L24.4354 11.8502C24.8948 11.372 25.6551 11.372 26.1144 11.8502C26.5738 12.3124 26.5738 13.0615 26.1144 13.5396L16.9733 22.7234C16.2953 23.4039 16.1686 24.4638 16.6676 25.2862L21.5367 33.3351C22.107 34.2915 23.089 34.8334 24.1661 34.8334C24.2929 34.8334 24.4354 34.8334 24.5621 34.8174C25.7976 34.658 26.7797 33.8133 27.144 32.6179L34.6996 7.16427C35.0323 6.08046 34.7313 4.90102 33.9393 4.08816Z" fill="#FFF"/>
</svg>
