<svg width="54" height="43" viewBox="0 0 54 43" fill="none" xmlns="http://www.w3.org/2000/svg">
<path d="M1.04958 22.1855C1.2825 22.1855 1.51741 22.1083 1.71281 21.9503L6.42742 18.1219V41.9576C6.42742 42.533 6.89664 43 7.47644 43C8.05643 43 8.52546 42.5332 8.52546 41.9576V16.418L25.8379 2.36079L44.9961 16.5517V41.957C44.9961 42.533 45.4656 42.9994 46.0454 42.9994C46.6252 42.9994 47.0944 42.533 47.0944 41.957V18.1058L52.3229 21.9787C52.5113 22.1185 52.7307 22.1853 52.95 22.1853C53.2702 22.1853 53.5859 22.0407 53.7921 21.7655C54.1384 21.3041 54.0422 20.651 53.5777 20.307L46.9313 15.3834C46.796 15.1706 46.5844 15.0128 46.3352 14.9414L26.4369 0.202484C26.4167 0.187811 26.3942 0.178095 26.374 0.165207C26.3419 0.144784 26.3097 0.123568 26.2752 0.106912C26.2459 0.0922389 26.2145 0.081135 26.1838 0.0692381C26.1517 0.0567463 26.1195 0.0442546 26.0858 0.0353318C26.0529 0.0262108 26.0195 0.0214522 25.9858 0.0157021C25.9529 0.0103484 25.9195 0.00380484 25.886 0.00102888C25.8535 -0.000953944 25.8213 0.000434034 25.7894 0.00102888C25.7535 0.00182201 25.7188 0.00182221 25.6832 0.00618442C25.6533 0.00955523 25.6232 0.0170899 25.5926 0.0228401C25.5571 0.0303748 25.5206 0.0373146 25.4856 0.0492116C25.4549 0.0587291 25.4256 0.0726091 25.3962 0.0852992C25.3641 0.099179 25.3322 0.111671 25.301 0.129119C25.2689 0.14637 25.2388 0.168776 25.2082 0.190191C25.1881 0.204863 25.1647 0.215372 25.1453 0.23183L17.396 6.52354V4.25498C17.396 3.67897 16.9268 3.21281 16.347 3.21281H10.7572C10.1776 3.21281 9.7082 3.67897 9.7082 4.25498V12.7661L0.384963 20.3363C-0.0637056 20.7003 -0.129569 21.3573 0.23687 21.803C0.443641 22.0548 0.745215 22.1855 1.04958 22.1855ZM11.8062 5.29656H15.2978V8.22639L11.8062 11.0614V5.29656Z" fill="#3c4858"/>
</svg>
