<svg width="53" height="49" viewBox="0 0 53 49" fill="none" xmlns="http://www.w3.org/2000/svg">
<path d="M0.169922 24.864C0.169922 26.1469 0.875496 27.3206 2.00932 27.924C2.3437 28.1017 2.74465 28.0921 3.06799 27.898C3.39194 27.7025 3.58981 27.3544 3.58981 26.9761V25.8383H3.68214V26.9761C3.68214 27.354 3.88001 27.7038 4.20335 27.898C4.3733 27.9986 4.56442 28.051 4.75707 28.051C4.93009 28.051 5.10403 28.009 5.26202 27.9253C6.39646 27.3206 7.10203 26.149 7.10203 24.864C7.10203 23.9611 6.75875 23.1169 6.14613 22.4767V21.7459C6.51947 21.918 6.92993 22.0208 7.36278 22.0377L14.1955 23.5694C14.3105 23.5955 14.4354 23.5955 14.5578 23.5765C15.8306 23.7194 17.1261 23.0516 17.7387 21.919L18.0203 21.4159L20.6297 27.4197L16.65 30.8203C16.4788 30.946 16.3165 31.0826 16.1693 31.2307C16.1567 31.2433 16.1435 31.2571 16.1309 31.2718C15.4192 32.0109 15.0287 32.9778 15.0287 34.0033C15.0287 34.438 15.7698 37.4824 17.2316 43.0559L14.4204 44.1047C14.1881 44.1928 13.9933 44.3557 13.8691 44.5689C13.4261 44.945 13.154 45.5033 13.154 46.1015C13.154 47.4455 14.9318 48.0541 15.4726 48.0541C15.4898 48.0541 15.5073 48.0541 15.5244 48.052L20.8659 48.1971C21.0291 48.2201 21.1951 48.2348 21.3657 48.2348C21.5304 48.2348 21.6927 48.221 21.8528 48.1992H22.0593C22.063 48.1992 22.066 48.1992 22.0703 48.1992C22.3102 48.2127 22.5679 48.1133 22.7547 47.9639C24.1395 47.4044 25.0718 46.0512 25.0718 44.529C25.0718 44.4848 25.0708 44.4419 25.0696 44.3986C25.0859 44.3253 25.0932 44.2498 25.0932 44.1698C25.0932 43.9915 25.0491 43.8213 24.9705 43.6722C24.9138 43.4351 24.8331 43.201 24.7291 42.9761L22.3722 36.0063C22.3743 36.0041 22.3759 35.9998 22.378 35.998L26.1856 32.5483L26.7173 35.2212C26.7296 35.278 26.7458 35.3344 26.7661 35.3893C27.1639 36.4495 27.9987 37.2892 29.0055 37.6696L37.5153 41.4122V45.2481C37.5153 45.4591 37.5874 45.6576 37.7086 45.8245C37.9804 46.6224 38.7277 47.1789 39.6066 47.1789C40.4978 47.1789 41.2389 46.3758 41.6012 45.8981C41.6644 45.8141 41.7147 45.7217 41.7512 45.623L43.6326 40.5692C43.8057 40.2541 43.9321 39.9182 44.0066 39.5645L44.0244 39.5185C44.0802 39.3663 44.0959 39.2065 44.0793 39.0494C44.0854 38.9632 44.0894 38.877 44.0894 38.7887C44.0894 37.7297 43.6351 36.7606 42.9013 36.078C43.067 36.0268 43.2256 35.9501 43.3516 35.824L52.294 26.8819C52.7149 26.462 52.7149 25.7815 52.294 25.3616L48.0474 21.114C48.0462 21.1131 48.0462 21.1118 48.0452 21.1109C48.044 21.1097 48.0431 21.1097 48.0419 21.1088L45.0625 18.1303C44.6594 17.7272 43.9452 17.7272 43.5425 18.1303L40.4539 21.2186C40.3468 20.379 39.9373 19.6145 39.275 19.1003L32.7714 13.6999C32.2999 13.2149 31.6891 12.8894 31.0296 12.7698C31.0066 12.763 30.9835 12.7557 30.9602 12.7505L23.8603 10.9322C23.2756 10.6693 22.6541 10.5123 22.012 10.465C21.9442 10.454 21.8767 10.454 21.8089 10.4518C21.4577 10.4313 21.1092 10.4619 20.7632 10.5153C21.9258 9.50573 22.6786 8.03415 22.6786 6.37635C22.6786 3.3439 20.2116 0.875305 17.1792 0.875305C14.5142 0.875305 12.2886 2.78128 11.7867 5.30142H11.5563C10.9631 5.30142 10.4814 5.78274 10.4814 6.37635C10.4814 6.96995 10.9634 7.45128 11.5563 7.45128H11.7867C12.2886 9.97141 14.5142 11.8786 17.1792 11.8786C17.4678 11.8786 17.7455 11.8366 18.0215 11.7936C17.5865 12.17 17.1991 12.6054 16.8972 13.1057L13.8712 17.091L8.49508 15.7492C8.38219 15.7114 7.97111 15.6148 7.97111 15.6148C7.86037 15.5875 7.7484 15.5832 7.64256 15.5918C7.1051 15.5709 6.59954 15.6946 6.14276 15.9075V14.1871C6.75538 13.5465 7.09804 12.702 7.09804 11.7976C7.09804 10.5141 6.39308 9.34099 5.25864 8.73788C4.92426 8.56087 4.52331 8.57038 4.20089 8.7661C3.87756 8.96029 3.67969 9.3097 3.67969 9.68734V10.6494H3.59042V9.68734C3.59042 9.31001 3.39255 8.96029 3.0686 8.7661C2.74527 8.5713 2.34217 8.56179 2.00994 8.7388C0.875189 9.34376 0.170536 10.5153 0.170536 11.7985C0.170536 12.7029 0.513199 13.5478 1.12736 14.1889V22.4782C0.512893 23.1148 0.169922 23.959 0.169922 24.864ZM50.0166 26.1196L42.5933 33.5416L39.864 30.8123L42.8412 27.8351C43.0268 27.9651 43.2335 28.0492 43.4498 28.0492C43.7247 28.0492 44.0002 27.944 44.2109 27.7341C44.5858 27.3583 44.6066 26.785 44.3106 26.3653L47.2878 23.389L50.0166 26.1196ZM34.6019 28.5916L41.1656 35.1562L33.8853 31.9035L31.4824 24.3489C31.4673 24.3047 31.4517 24.263 31.433 24.221L28.9417 18.8678L29.0803 18.8963L35.1354 24.0406C35.6216 24.471 36.222 24.7336 36.8573 24.8152L34.6013 27.0712C34.1819 27.4924 34.1819 28.1707 34.6019 28.5916ZM44.3054 20.4084L45.7669 21.8699L42.058 25.5778C42.0568 25.58 42.0558 25.58 42.0546 25.58C42.0537 25.5821 42.0537 25.5834 42.0525 25.5843L38.3436 29.2925L36.8821 27.832L44.3054 20.4084ZM17.1835 3.02333C18.6517 3.02333 19.8889 3.98046 20.3407 5.29927H14.0262C14.4765 3.98015 15.7125 3.02333 17.1835 3.02333ZM17.1835 9.7263C15.7137 9.7263 14.4753 8.76825 14.0252 7.44913H20.3398C19.8889 8.76856 18.6517 9.7263 17.1835 9.7263ZM7.61127 17.7416C7.6263 17.7438 7.64072 17.7459 7.65636 17.7472C7.73613 17.7668 7.83061 17.7913 7.90362 17.8134L14.0418 19.3482C14.459 19.4522 14.8989 19.2979 15.1588 18.9546L18.5891 14.4353C18.6342 14.3828 18.6762 14.326 18.7118 14.265C19.3109 13.2342 20.4199 12.5937 21.6068 12.5937L21.7872 12.6032C21.7951 12.6032 21.8025 12.6032 21.8099 12.6041C22.2387 12.629 22.6538 12.7354 23.0406 12.918C23.1032 12.9486 23.1689 12.9716 23.2354 12.9882L30.3292 14.8034C30.4163 14.839 30.5078 14.8632 30.601 14.8758C30.848 14.9074 31.0768 15.0267 31.2498 15.2138C31.2814 15.2473 31.3161 15.281 31.3526 15.3102L37.9328 20.7738C38.2006 20.9827 38.354 21.2931 38.354 21.626C38.354 22.2205 37.87 22.7034 37.2767 22.7034C36.9417 22.7034 36.7036 22.5555 36.5472 22.4166L30.266 17.0802C30.1295 16.9646 29.9648 16.8827 29.7893 16.8471L27.2833 16.3244C26.8869 16.2421 26.4752 16.3915 26.2212 16.7084C25.9688 17.0253 25.9175 17.46 26.089 17.8297L29.4552 25.0649L31.9842 33.0122C32.0766 33.3027 32.2907 33.5432 32.5702 33.6671L40.4438 37.1852C40.5192 37.2177 40.599 37.2441 40.68 37.2597C41.4129 37.3984 41.9417 38.0408 41.9417 38.7841C41.9417 38.8556 41.9347 38.9249 41.9249 38.9942C41.9227 39.0132 41.9206 39.0298 41.9184 39.0467C41.9175 39.055 41.9153 39.0617 41.9141 39.07C41.8816 39.2452 41.8196 39.4099 41.7313 39.5614C41.6991 39.616 41.6718 39.6725 41.6494 39.7314L39.7998 44.7014C39.7587 44.7474 39.7136 44.7959 39.6686 44.8419C39.6686 44.8419 39.6673 44.8398 39.6661 44.8376V40.7097C39.6661 40.2833 39.4142 39.8974 39.0225 39.7249L29.82 35.6792C29.3644 35.5068 28.9978 35.154 28.8067 34.7049L27.9585 30.4466C27.9511 30.18 27.8241 29.9196 27.6465 29.7088C27.4072 29.4242 26.9667 29.2922 26.5998 29.3487C26.2019 29.4054 25.8767 29.6782 25.743 30.0478L20.8012 34.5242C20.7055 34.6101 20.626 34.7132 20.5681 34.8276C20.5067 34.9473 20.4346 35.0553 20.3552 35.1522C20.1168 35.44 20.0432 35.8302 20.164 36.183L22.713 43.7237C22.7277 43.767 22.7449 43.8087 22.7642 43.8507C22.8247 43.9747 22.8676 44.1026 22.8934 44.2308C22.8943 44.2391 22.8964 44.2477 22.8977 44.256C22.8986 44.2738 22.9007 44.2916 22.9041 44.3106C22.9142 44.3818 22.9225 44.4545 22.9225 44.529C22.9225 45.2324 22.4476 45.8497 21.7657 46.0303C21.7408 46.0368 21.7163 46.0451 21.6927 46.0534C21.6672 46.0555 21.6414 46.0589 21.6157 46.0629C21.454 46.0868 21.2834 46.0868 21.1242 46.0629C21.0791 46.0564 21.035 46.0524 20.9899 46.0512L15.7413 45.9083L18.8955 44.7327C19.4128 44.5382 19.6999 43.9851 19.5591 43.4498C18.4535 39.2556 17.243 34.4926 17.1801 34.0043C17.1801 33.5309 17.3638 33.0858 17.6982 32.7456C17.7065 32.7373 17.7151 32.7287 17.7231 32.7204C17.7844 32.6615 17.8574 32.6026 17.9829 32.5084L22.6314 28.5391C22.9903 28.2314 23.1075 27.7256 22.9195 27.293L19.1281 18.5681C18.9655 18.1932 18.6041 17.9435 18.1958 17.9236C17.7915 17.9015 17.4028 18.1156 17.2037 18.4724L15.8561 20.8839C15.634 21.2953 15.1348 21.5128 14.6955 21.4266C14.6063 21.4076 14.5112 21.4076 14.4145 21.4174L7.72938 19.9191C7.65176 19.9013 7.57354 19.8918 7.49347 19.8918C6.89925 19.8918 6.41548 19.409 6.41548 18.8147C6.41701 18.1785 6.99343 17.665 7.61127 17.7416ZM4.48957 12.7971C4.46809 12.8161 4.44631 12.8327 4.42515 12.8495C4.15641 13.0523 3.99843 13.3701 3.99843 13.7064V22.9534C3.99843 23.2283 4.10396 23.4909 4.28863 23.6884H2.98884C3.17352 23.4899 3.27905 23.2286 3.27905 22.9534V13.7064C3.27905 13.3701 3.12106 13.0523 2.85233 12.8495C2.82963 12.8327 2.80815 12.8161 2.78791 12.7971H4.48957Z" fill="#3c4858"/>
</svg>
